<?xml version="1.0" standalone="no"?>
<!DOCTYPE svg PUBLIC "-//W3C//DTD SVG 20010904//EN"
 "http://www.w3.org/TR/2001/REC-SVG-20010904/DTD/svg10.dtd">
<svg version="1.0" xmlns="http://www.w3.org/2000/svg"
 width="500.000000pt" height="500.000000pt" viewBox="0 0 500.000000 500.000000"
 preserveAspectRatio="xMidYMid meet">

<g transform="translate(0.000000,500.000000) scale(0.100000,-0.100000)"
fill="#000000" stroke="none">
<path d="M2255 4693 c-383 -33 -742 -157 -1051 -361 -784 -521 -1136 -1459
-880 -2348 165 -575 601 -1084 1147 -1338 289 -135 560 -200 879 -213 1025
-40 1946 631 2201 1602 40 156 58 278 66 450 24 583 -200 1148 -623 1571 -356
356 -803 568 -1321 629 -115 14 -313 17 -418 8z m53 -1285 c173 -385 615
-1518 599 -1535 -9 -9 -259 -16 -308 -9 l-44 7 -71 162 c-133 301 -584 1447
-584 1483 0 2 80 4 179 4 l179 0 50 -112z m-733 -413 l-5 -40 -343 -170 c-236
-118 -343 -176 -345 -188 -4 -21 102 -74 448 -221 123 -53 229 -101 235 -107
10 -10 12 -145 2 -155 -6 -6 -624 258 -837 357 l-125 58 -3 56 -3 55 483 241
483 241 8 -43 c4 -24 5 -62 2 -84z m2155 -113 c441 -220 475 -239 482 -267 4
-16 4 -43 0 -60 -7 -27 -22 -36 -143 -91 -209 -95 -767 -337 -807 -349 -23 -7
-23 -6 -20 76 l3 83 185 78 c245 103 499 219 507 230 12 20 -39 50 -317 187
-157 78 -305 151 -330 164 l-45 22 -3 83 c-2 45 1 82 5 81 4 0 222 -107 483
-237z"/>
</g>
</svg>
